<svg width="128" height="128" viewBox="0 0 128 128" fill="none" xmlns="http://www.w3.org/2000/svg">
<rect width="128" height="128" rx="20" fill="black"/>
<path d="M35.6875 100V27.2727H67.2216C72.7614 27.2727 77.4134 28.0185 81.1776 29.5099C84.9654 31.0014 87.8182 33.1084 89.7358 35.831C91.6771 38.5535 92.6477 41.7614 92.6477 45.4545C92.6477 48.1297 92.0559 50.5682 90.8722 52.7699C89.7121 54.9716 88.0786 56.8182 85.9716 58.3097C83.8646 59.7775 81.4025 60.7955 78.5852 61.3636V62.0739C81.7102 62.1922 84.5511 62.9853 87.108 64.4531C89.6648 65.8973 91.7008 67.8977 93.2159 70.4545C94.7311 72.9877 95.4886 75.9706 95.4886 79.4034C95.4886 83.3807 94.447 86.92 92.3636 90.0213C90.304 93.1226 87.3684 95.5611 83.5568 97.3366C79.7453 99.1122 75.1998 100 69.9205 100H35.6875ZM55.4318 84.233H64.6648C67.9792 84.233 70.465 83.6174 72.1222 82.3864C73.7794 81.1316 74.608 79.285 74.608 76.8466C74.608 75.142 74.2173 73.6979 73.4361 72.5142C72.6548 71.3305 71.5421 70.4309 70.098 69.8153C68.6776 69.1998 66.9612 68.892 64.9489 68.892H55.4318V84.233ZM55.4318 56.6761H63.5284C65.2566 56.6761 66.7836 56.4039 68.1094 55.8594C69.4351 55.3149 70.465 54.5336 71.1989 53.5156C71.9564 52.474 72.3352 51.2074 72.3352 49.7159C72.3352 47.4669 71.5303 45.7505 69.9205 44.5668C68.3106 43.3594 66.2746 42.7557 63.8125 42.7557H55.4318V56.6761Z" fill="white"/>
</svg>
